<svg width="20" height="20" viewBox="0 0 20 20" fill="none" xmlns="http://www.w3.org/2000/svg">
<path d="M11.0625 18.3333C10.7431 18.3333 10.5104 18.2291 10.3646 18.0208C10.2188 17.8125 10.2014 17.5555 10.3125 17.25L13.375 9.12496C13.4583 8.90274 13.6111 8.71524 13.8333 8.56246C14.0556 8.40968 14.2847 8.33329 14.5208 8.33329C14.7569 8.33329 14.9896 8.40968 15.2188 8.56246C15.4479 8.71524 15.6042 8.90274 15.6875 9.12496L18.8125 17.1666C18.9375 17.4861 18.9236 17.7604 18.7708 17.9895C18.6181 18.2187 18.3611 18.3333 18 18.3333C17.8472 18.3333 17.7014 18.2847 17.5625 18.1875C17.4236 18.0902 17.3264 17.9652 17.2708 17.8125L16.5833 15.7083H12.5833L11.7917 17.8333C11.7361 17.9722 11.6389 18.0902 11.5 18.1875C11.3611 18.2847 11.2153 18.3333 11.0625 18.3333V18.3333ZM13.0417 14.25H16L14.5417 10.2083H14.5L13.0417 14.25ZM6.02084 7.12496C6.22917 7.48607 6.45834 7.83676 6.70834 8.17704C6.95834 8.51732 7.22917 8.86801 7.52084 9.22913C8.14584 8.57635 8.66667 7.89926 9.08334 7.19788C9.5 6.49649 9.85417 5.76385 10.1458 4.99996H1.66667C1.43056 4.99996 1.23264 4.9201 1.07292 4.76038C0.913197 4.60065 0.833336 4.40274 0.833336 4.16663C0.833336 3.93051 0.913197 3.7326 1.07292 3.57288C1.23264 3.41315 1.43056 3.33329 1.66667 3.33329H6.66667V2.49996C6.66667 2.26385 6.74653 2.06593 6.90625 1.90621C7.06597 1.74649 7.26389 1.66663 7.5 1.66663C7.73611 1.66663 7.93403 1.74649 8.09375 1.90621C8.25347 2.06593 8.33334 2.26385 8.33334 2.49996V3.33329H13.3333C13.5694 3.33329 13.7674 3.41315 13.9271 3.57288C14.0868 3.7326 14.1667 3.93051 14.1667 4.16663C14.1667 4.40274 14.0868 4.60065 13.9271 4.76038C13.7674 4.9201 13.5694 4.99996 13.3333 4.99996H11.8125C11.5069 5.95829 11.1007 6.89926 10.5938 7.82288C10.0868 8.74649 9.46528 9.62496 8.72917 10.4583L10.7708 12.5208L10.1458 14.2083L7.5 11.6666L3.89584 15.2708C3.74306 15.4236 3.55556 15.5 3.33334 15.5C3.11111 15.5 2.92361 15.4166 2.77084 15.25C2.60417 15.0972 2.52084 14.9097 2.52084 14.6875C2.52084 14.4652 2.60417 14.2708 2.77084 14.1041L6.4375 10.4375C6.07639 10.0069 5.73611 9.57288 5.41667 9.13538C5.09722 8.69788 4.80556 8.24996 4.54167 7.79163C4.375 7.48607 4.36111 7.22218 4.5 6.99996C4.63889 6.77774 4.88889 6.66663 5.25 6.66663C5.40278 6.66663 5.55209 6.71177 5.69792 6.80204C5.84375 6.89232 5.95139 6.99996 6.02084 7.12496V7.12496Z" fill="url(#paint0_linear_8_72)"/>
<defs>
<linearGradient id="paint0_linear_8_72" x1="9.86511" y1="1.66663" x2="9.86511" y2="18.3333" gradientUnits="userSpaceOnUse">
<stop stop-color="#9262F9"/>
<stop offset="0.0001" stop-color="#F9AB62"/>
<stop offset="1" stop-color="#C95E22"/>
</linearGradient>
</defs>
</svg>
