<svg width="190" height="40" viewBox="0 0 190 40" fill="none" xmlns="http://www.w3.org/2000/svg">
<path d="M10.872 5.736C15.256 5.736 18.664 6.648 21.096 8.472C23.528 10.296 24.744 13 24.744 16.584C24.744 20.328 23.544 23.16 21.144 25.08C18.776 26.968 15.592 27.912 11.592 27.912H7.992V39H0.12V5.736H10.872ZM10.92 22.248C12.776 22.248 14.184 21.816 15.144 20.952C16.136 20.056 16.632 18.6 16.632 16.584C16.632 13.096 14.68 11.352 10.776 11.352H7.992V22.248H10.92ZM38.3441 12.696C42.2481 12.696 45.3041 13.896 47.5121 16.296C49.7201 18.664 50.8241 21.992 50.8241 26.28C50.8241 29 50.3121 31.384 49.2881 33.432C48.2961 35.448 46.8561 37.016 44.9681 38.136C43.1121 39.256 40.9041 39.816 38.3441 39.816C34.4721 39.816 31.4161 38.632 29.1761 36.264C26.9681 33.864 25.8641 30.52 25.8641 26.232C25.8641 23.512 26.3601 21.144 27.3521 19.128C28.3761 17.08 29.8161 15.496 31.6721 14.376C33.5601 13.256 35.7841 12.696 38.3441 12.696ZM38.3441 18.264C36.8081 18.264 35.6561 18.92 34.8881 20.232C34.1201 21.512 33.7361 23.512 33.7361 26.232C33.7361 29.016 34.1041 31.048 34.8401 32.328C35.6081 33.608 36.7761 34.248 38.3441 34.248C39.8801 34.248 41.0321 33.608 41.8001 32.328C42.5681 31.016 42.9521 29 42.9521 26.28C42.9521 23.496 42.5681 21.464 41.8001 20.184C41.0641 18.904 39.9121 18.264 38.3441 18.264ZM69.1594 12.792C70.0874 12.792 70.9354 12.904 71.7034 13.128L70.5034 20.472C69.5434 20.248 68.7754 20.136 68.1994 20.136C66.6954 20.136 65.5434 20.664 64.7434 21.72C63.9754 22.744 63.3674 24.296 62.9194 26.376V39H55.3354V13.512H61.9594L62.5834 18.456C63.1594 16.696 64.0234 15.32 65.1754 14.328C66.3594 13.304 67.6874 12.792 69.1594 12.792ZM90.585 37.8C89.657 38.44 88.569 38.936 87.321 39.288C86.105 39.64 84.889 39.816 83.673 39.816C78.105 39.784 75.321 36.712 75.321 30.6V18.792H71.721V13.512H75.321V7.992L82.905 7.128V13.512H88.761L87.945 18.792H82.905V30.504C82.905 31.688 83.097 32.536 83.481 33.048C83.865 33.56 84.473 33.816 85.305 33.816C86.169 33.816 87.081 33.544 88.041 33L90.585 37.8Z" fill="#141414"/>
<path d="M104.781 8.184C103.693 8.184 102.909 8.44 102.429 8.952C101.949 9.464 101.709 10.328 101.709 11.544V13.512H107.709L106.893 18.792H101.709V39H94.1246V18.792H90.2846V13.512H94.1246V11.256C94.1246 8.696 94.9566 6.616 96.6206 5.016C98.3166 3.384 100.733 2.568 103.869 2.568C106.397 2.568 108.717 3.112 110.829 4.2L108.765 9.144C107.485 8.504 106.157 8.184 104.781 8.184ZM120.797 12.696C124.701 12.696 127.757 13.896 129.965 16.296C132.173 18.664 133.277 21.992 133.277 26.28C133.277 29 132.765 31.384 131.741 33.432C130.749 35.448 129.309 37.016 127.421 38.136C125.565 39.256 123.357 39.816 120.797 39.816C116.925 39.816 113.869 38.632 111.629 36.264C109.421 33.864 108.317 30.52 108.317 26.232C108.317 23.512 108.813 21.144 109.805 19.128C110.829 17.08 112.269 15.496 114.125 14.376C116.013 13.256 118.237 12.696 120.797 12.696ZM120.797 18.264C119.261 18.264 118.109 18.92 117.341 20.232C116.573 21.512 116.189 23.512 116.189 26.232C116.189 29.016 116.557 31.048 117.293 32.328C118.061 33.608 119.229 34.248 120.797 34.248C122.333 34.248 123.485 33.608 124.253 32.328C125.021 31.016 125.405 29 125.405 26.28C125.405 23.496 125.021 21.464 124.253 20.184C123.517 18.904 122.365 18.264 120.797 18.264ZM144.557 39.816C142.349 39.816 140.621 39.192 139.373 37.944C138.157 36.664 137.549 34.856 137.549 32.52V3.384L145.133 2.568V32.232C145.133 33.288 145.565 33.816 146.429 33.816C146.877 33.816 147.293 33.736 147.677 33.576L149.165 38.952C147.789 39.528 146.253 39.816 144.557 39.816ZM159.623 13.512V39H152.039V13.512H159.623ZM155.783 0.0719976C157.095 0.0719976 158.167 0.487998 158.999 1.32C159.863 2.12 160.295 3.144 160.295 4.392C160.295 5.64 159.863 6.68 158.999 7.512C158.167 8.312 157.095 8.712 155.783 8.712C154.471 8.712 153.399 8.312 152.567 7.512C151.735 6.68 151.319 5.64 151.319 4.392C151.319 3.144 151.735 2.12 152.567 1.32C153.399 0.487998 154.471 0.0719976 155.783 0.0719976ZM176.625 12.696C180.529 12.696 183.585 13.896 185.793 16.296C188.001 18.664 189.105 21.992 189.105 26.28C189.105 29 188.593 31.384 187.569 33.432C186.577 35.448 185.137 37.016 183.249 38.136C181.393 39.256 179.185 39.816 176.625 39.816C172.753 39.816 169.697 38.632 167.457 36.264C165.249 33.864 164.145 30.52 164.145 26.232C164.145 23.512 164.641 21.144 165.633 19.128C166.657 17.08 168.097 15.496 169.953 14.376C171.841 13.256 174.065 12.696 176.625 12.696ZM176.625 18.264C175.089 18.264 173.937 18.92 173.169 20.232C172.401 21.512 172.017 23.512 172.017 26.232C172.017 29.016 172.385 31.048 173.121 32.328C173.889 33.608 175.057 34.248 176.625 34.248C178.161 34.248 179.313 33.608 180.081 32.328C180.849 31.016 181.233 29 181.233 26.28C181.233 23.496 180.849 21.464 180.081 20.184C179.345 18.904 178.193 18.264 176.625 18.264Z" fill="url(#paint0_linear_3_32)"/>
<defs>
<linearGradient id="paint0_linear_3_32" x1="94" y1="-7" x2="94" y2="53" gradientUnits="userSpaceOnUse">
<stop stop-color="#9262F9"/>
<stop offset="0.0001" stop-color="#F9AB62"/>
<stop offset="1" stop-color="#C95E22"/>
</linearGradient>
</defs>
</svg>
